<svg version="1.1" id="Layer_1" xmlns="http://www.w3.org/2000/svg" xmlns:xlink="http://www.w3.org/1999/xlink" x="0px" y="0px"
	 width="100%" viewBox="0 0 512 512" enable-background="new 0 0 512 512" xml:space="preserve">
<path fill="#020202" opacity="1.000000" stroke="none" 
	d="
M272.000000,513.000000 
	C181.355331,513.000000 91.210663,513.000000 1.032996,513.000000 
	C1.032996,342.396973 1.032996,171.793930 1.032996,1.095450 
	C171.561356,1.095450 342.122772,1.095450 512.842102,1.095450 
	C512.842102,171.666550 512.842102,342.333252 512.842102,513.000000 
	C432.793915,513.000000 352.646942,513.000000 272.000000,513.000000 
M117.416985,334.042450 
	C119.835434,334.042450 122.253891,334.042450 125.255157,334.042450 
	C125.255157,314.731201 125.255157,296.181458 125.255157,277.048798 
	C142.895096,277.048798 159.943710,277.048798 177.139893,277.048798 
	C177.139893,269.022888 177.139893,261.597900 177.139893,253.516327 
	C159.608658,253.516327 142.403442,253.516327 125.371185,253.516327 
	C125.371185,241.127548 125.371185,229.403473 125.371185,217.243561 
	C145.050461,217.243561 164.311584,217.243561 183.711182,217.243561 
	C183.711182,209.218613 183.711182,201.643845 183.711182,194.030640 
	C154.769775,194.030640 126.194389,194.030640 97.313797,194.030640 
	C97.313797,240.767120 97.313797,287.134796 97.313797,334.039551 
	C103.865196,334.039551 110.152260,334.039551 117.416985,334.042450 
M199.528091,331.988464 
	C217.983505,340.060150 234.486282,337.218658 249.378174,322.601685 
	C249.759277,326.628143 250.094376,330.168579 250.437317,333.791870 
	C258.872864,333.791870 266.799652,333.791870 275.277618,333.791870 
	C274.820129,327.054199 274.078644,320.639404 274.009735,314.217407 
	C273.847137,299.062073 274.085144,283.902893 274.013397,268.745941 
	C273.914886,247.932693 262.719635,235.545547 242.067886,232.822357 
	C230.457855,231.291428 219.083405,232.074585 208.102402,236.029129 
	C202.263443,238.131882 196.760742,241.168335 190.618286,244.009003 
	C194.210526,250.509750 197.217300,255.951019 200.295517,261.521576 
	C202.468948,260.500610 203.935684,259.738068 205.457489,259.108643 
	C215.245117,255.060379 225.223297,251.985306 236.008713,253.928802 
	C245.637131,255.663818 249.644180,262.049133 247.190399,272.184814 
	C244.187180,272.184814 241.060791,272.207611 237.934814,272.180786 
	C226.212189,272.080109 214.525040,272.707306 203.567490,277.240692 
	C192.344940,281.883698 184.833206,290.049744 183.675781,302.565674 
	C182.495331,315.330841 187.428436,325.302094 199.528091,331.988464 
M371.505524,334.053497 
	C375.968750,334.053497 380.431976,334.053497 385.272980,334.053497 
	C385.272980,317.939941 385.360992,302.300079 385.235901,286.661926 
	C385.173401,278.846497 385.304596,270.959717 384.318390,263.236725 
	C382.539032,249.302567 375.473236,238.538193 361.675537,234.257965 
	C347.231964,229.777390 333.293213,231.015045 321.714081,242.309189 
	C320.629608,243.366989 319.577118,244.457581 317.935760,246.111282 
	C317.323395,241.755554 316.865875,238.501221 316.381195,235.053574 
	C308.498718,235.053574 300.925446,235.053574 293.067871,235.053574 
	C293.067871,268.083679 293.067871,300.803253 293.067871,333.791840 
	C301.931274,333.791840 310.513977,333.791840 319.402222,333.791840 
	C319.487427,332.156555 319.629547,330.696686 319.629608,329.236847 
	C319.630402,310.574585 319.385040,291.907532 319.783051,273.254089 
	C319.864655,269.429199 321.532959,265.045654 323.863373,261.978424 
	C329.609619,254.415436 339.196991,252.292969 348.170441,255.598297 
	C355.048950,258.131958 358.499207,264.245850 358.518250,274.355927 
	C358.552185,292.351654 358.488892,310.347595 358.466858,328.343445 
	C358.464661,330.130676 358.466583,331.917908 358.466583,334.054352 
	C362.880676,334.054352 366.697601,334.054352 371.505524,334.053497 
M408.044708,306.860565 
	C407.188110,307.073822 405.933472,306.998566 405.537048,307.545410 
	C401.942078,312.504944 398.497040,317.573151 394.746185,322.987671 
	C396.554291,324.412811 397.960815,325.823578 399.626770,326.784698 
	C409.299164,332.364929 419.697021,335.626038 430.897003,336.078064 
	C443.912476,336.603333 456.535248,335.518768 467.480927,327.285278 
	C481.216309,316.953400 482.923889,295.496216 470.174835,284.496277 
	C465.675018,280.613831 459.683472,278.140320 453.999512,276.029022 
	C446.387207,273.201416 438.373383,271.473358 430.608093,269.031128 
	C426.541870,267.752258 423.298737,265.314606 424.021698,260.367615 
	C424.717987,255.602951 428.486359,253.461273 432.564240,253.352966 
	C438.626465,253.191986 444.822174,253.590118 450.762817,254.758377 
	C455.351654,255.660767 459.636169,258.110474 464.219177,259.937317 
	C467.722198,254.618591 471.149536,249.414749 474.531189,244.280304 
	C459.326172,230.634247 428.269836,227.916397 411.714386,238.800217 
	C402.250275,245.022095 397.527954,254.101349 398.207977,265.535706 
	C398.879333,276.824493 404.827942,284.739349 415.306458,288.536072 
	C424.499786,291.867126 434.070496,294.150635 443.454620,296.963196 
	C450.111969,298.958496 452.974335,301.956696 452.725342,306.449402 
	C452.461304,311.213898 448.405151,314.653595 441.833679,315.602509 
	C440.355835,315.815887 438.848969,315.891388 437.353851,315.911835 
	C426.865143,316.055267 417.386688,312.854248 408.044708,306.860565 
M73.054893,331.273346 
	C73.054893,299.235504 73.054893,267.197662 73.054893,235.176682 
	C63.659138,235.176682 54.965767,235.176682 46.378292,235.176682 
	C46.378292,268.325897 46.378292,301.010529 46.378292,334.016296 
	C54.700993,334.016296 62.665104,334.067627 70.626282,333.938202 
	C71.437332,333.925049 72.230728,332.825775 73.054893,331.273346 
M44.503674,210.790009 
	C45.284824,212.056107 45.925949,213.439285 46.870407,214.568832 
	C52.045334,220.757858 61.243107,221.891663 68.614372,217.329697 
	C74.875160,213.454987 77.264458,205.643387 74.346069,198.590378 
	C71.113335,190.777679 62.161934,186.818451 54.097069,189.634171 
	C45.490929,192.638870 41.698597,200.461563 44.503674,210.790009 
z"/>
<path fill="#FBFBFB" opacity="1.000000" stroke="none" 
	d="
M116.928162,334.041016 
	C110.152260,334.039551 103.865196,334.039551 97.313797,334.039551 
	C97.313797,287.134796 97.313797,240.767120 97.313797,194.030640 
	C126.194389,194.030640 154.769775,194.030640 183.711182,194.030640 
	C183.711182,201.643845 183.711182,209.218613 183.711182,217.243561 
	C164.311584,217.243561 145.050461,217.243561 125.371185,217.243561 
	C125.371185,229.403473 125.371185,241.127548 125.371185,253.516327 
	C142.403442,253.516327 159.608658,253.516327 177.139893,253.516327 
	C177.139893,261.597900 177.139893,269.022888 177.139893,277.048798 
	C159.943710,277.048798 142.895096,277.048798 125.255157,277.048798 
	C125.255157,296.181458 125.255157,314.731201 125.255157,334.042450 
	C122.253891,334.042450 119.835434,334.042450 116.928162,334.041016 
z"/>
<path fill="#F9F9F9" opacity="1.000000" stroke="none" 
	d="
M199.185608,331.846832 
	C187.428436,325.302094 182.495331,315.330841 183.675781,302.565674 
	C184.833206,290.049744 192.344940,281.883698 203.567490,277.240692 
	C214.525040,272.707306 226.212189,272.080109 237.934814,272.180786 
	C241.060791,272.207611 244.187180,272.184814 247.190399,272.184814 
	C249.644180,262.049133 245.637131,255.663818 236.008713,253.928802 
	C225.223297,251.985306 215.245117,255.060379 205.457489,259.108643 
	C203.935684,259.738068 202.468948,260.500610 200.295517,261.521576 
	C197.217300,255.951019 194.210526,250.509750 190.618286,244.009003 
	C196.760742,241.168335 202.263443,238.131882 208.102402,236.029129 
	C219.083405,232.074585 230.457855,231.291428 242.067886,232.822357 
	C262.719635,235.545547 273.914886,247.932693 274.013397,268.745941 
	C274.085144,283.902893 273.847137,299.062073 274.009735,314.217407 
	C274.078644,320.639404 274.820129,327.054199 275.277618,333.791870 
	C266.799652,333.791870 258.872864,333.791870 250.437317,333.791870 
	C250.094376,330.168579 249.759277,326.628143 249.378174,322.601685 
	C234.486282,337.218658 217.983505,340.060150 199.185608,331.846832 
M229.055466,315.640778 
	C243.974686,312.988495 250.341339,304.446960 247.441452,290.490509 
	C241.599655,290.490509 235.623444,290.030243 229.757370,290.636292 
	C225.072784,291.120270 220.262329,292.329163 215.984482,294.268066 
	C211.589340,296.260162 209.713196,300.548981 210.302979,305.489136 
	C210.878860,310.313019 213.854782,313.380524 218.384048,314.542236 
	C221.550079,315.354279 224.922302,315.362305 229.055466,315.640778 
z"/>
<path fill="#FAFAFA" opacity="1.000000" stroke="none" 
	d="
M371.010010,334.053925 
	C366.697601,334.054352 362.880676,334.054352 358.466583,334.054352 
	C358.466583,331.917908 358.464661,330.130676 358.466858,328.343445 
	C358.488892,310.347595 358.552185,292.351654 358.518250,274.355927 
	C358.499207,264.245850 355.048950,258.131958 348.170441,255.598297 
	C339.196991,252.292969 329.609619,254.415436 323.863373,261.978424 
	C321.532959,265.045654 319.864655,269.429199 319.783051,273.254089 
	C319.385040,291.907532 319.630402,310.574585 319.629608,329.236847 
	C319.629547,330.696686 319.487427,332.156555 319.402222,333.791840 
	C310.513977,333.791840 301.931274,333.791840 293.067871,333.791840 
	C293.067871,300.803253 293.067871,268.083679 293.067871,235.053574 
	C300.925446,235.053574 308.498718,235.053574 316.381195,235.053574 
	C316.865875,238.501221 317.323395,241.755554 317.935760,246.111282 
	C319.577118,244.457581 320.629608,243.366989 321.714081,242.309189 
	C333.293213,231.015045 347.231964,229.777390 361.675537,234.257965 
	C375.473236,238.538193 382.539032,249.302567 384.318390,263.236725 
	C385.304596,270.959717 385.173401,278.846497 385.235901,286.661926 
	C385.360992,302.300079 385.272980,317.939941 385.272980,334.053497 
	C380.431976,334.053497 375.968750,334.053497 371.010010,334.053925 
z"/>
<path fill="#F9F9F9" opacity="1.000000" stroke="none" 
	d="
M408.356262,307.016907 
	C417.386688,312.854248 426.865143,316.055267 437.353851,315.911835 
	C438.848969,315.891388 440.355835,315.815887 441.833679,315.602509 
	C448.405151,314.653595 452.461304,311.213898 452.725342,306.449402 
	C452.974335,301.956696 450.111969,298.958496 443.454620,296.963196 
	C434.070496,294.150635 424.499786,291.867126 415.306458,288.536072 
	C404.827942,284.739349 398.879333,276.824493 398.207977,265.535706 
	C397.527954,254.101349 402.250275,245.022095 411.714386,238.800217 
	C428.269836,227.916397 459.326172,230.634247 474.531189,244.280304 
	C471.149536,249.414749 467.722198,254.618591 464.219177,259.937317 
	C459.636169,258.110474 455.351654,255.660767 450.762817,254.758377 
	C444.822174,253.590118 438.626465,253.191986 432.564240,253.352966 
	C428.486359,253.461273 424.717987,255.602951 424.021698,260.367615 
	C423.298737,265.314606 426.541870,267.752258 430.608093,269.031128 
	C438.373383,271.473358 446.387207,273.201416 453.999512,276.029022 
	C459.683472,278.140320 465.675018,280.613831 470.174835,284.496277 
	C482.923889,295.496216 481.216309,316.953400 467.480927,327.285278 
	C456.535248,335.518768 443.912476,336.603333 430.897003,336.078064 
	C419.697021,335.626038 409.299164,332.364929 399.626770,326.784698 
	C397.960815,325.823578 396.554291,324.412811 394.746185,322.987671 
	C398.497040,317.573151 401.942078,312.504944 405.537048,307.545410 
	C405.933472,306.998566 407.188110,307.073822 408.356262,307.016907 
z"/>
<path fill="#FAFAFA" opacity="1.000000" stroke="none" 
	d="
M73.043602,331.751953 
	C72.230728,332.825775 71.437332,333.925049 70.626282,333.938202 
	C62.665104,334.067627 54.700993,334.016296 46.378292,334.016296 
	C46.378292,301.010529 46.378292,268.325897 46.378292,235.176682 
	C54.965767,235.176682 63.659138,235.176682 73.054893,235.176682 
	C73.054893,267.197662 73.054893,299.235504 73.043602,331.751953 
z"/>
<path fill="#F8F8F8" opacity="1.000000" stroke="none" 
	d="
M44.344109,210.435715 
	C41.698597,200.461563 45.490929,192.638870 54.097069,189.634171 
	C62.161934,186.818451 71.113335,190.777679 74.346069,198.590378 
	C77.264458,205.643387 74.875160,213.454987 68.614372,217.329697 
	C61.243107,221.891663 52.045334,220.757858 46.870407,214.568832 
	C45.925949,213.439285 45.284824,212.056107 44.344109,210.435715 
z"/>
<path fill="#090909" opacity="1.000000" stroke="none" 
	d="
M228.628952,315.685120 
	C224.922302,315.362305 221.550079,315.354279 218.384048,314.542236 
	C213.854782,313.380524 210.878860,310.313019 210.302979,305.489136 
	C209.713196,300.548981 211.589340,296.260162 215.984482,294.268066 
	C220.262329,292.329163 225.072784,291.120270 229.757370,290.636292 
	C235.623444,290.030243 241.599655,290.490509 247.441452,290.490509 
	C250.341339,304.446960 243.974686,312.988495 228.628952,315.685120 
z"/>
</svg>